<svg width="441" height="68" viewBox="0 0 441 68" fill="none" xmlns="http://www.w3.org/2000/svg">
<g clip-path="url(#clip0)">
<path d="M117.565 33.435H132.004" stroke="white"/>
<path d="M0 33.935H51" stroke="white"/>
<path d="M84.478 61.178C91.8035 61.178 98.829 58.2679 104.009 53.088C109.189 47.9081 112.099 40.8825 112.099 33.557C112.099 29.9297 111.385 26.3378 109.997 22.9866C108.609 19.6353 106.574 16.5903 104.009 14.0254C101.444 11.4604 98.3995 9.42576 95.0483 8.03762C91.6971 6.64947 88.1053 5.935 84.478 5.935C80.8507 5.935 77.2589 6.64947 73.9077 8.03762C70.5565 9.42576 67.5115 11.4604 64.9466 14.0254C62.3818 16.5903 60.3473 19.6353 58.9592 22.9866C57.5712 26.3378 56.8569 29.9297 56.857 33.557C56.857 40.8825 59.7671 47.9081 64.947 53.088C70.1269 58.2679 77.1525 61.178 84.478 61.178Z" fill="#E50019"/>
<path d="M84.379 66.807C93.1805 66.807 101.621 63.3106 107.845 57.087C114.069 50.8635 117.565 42.4225 117.565 33.621C117.565 24.8195 114.069 16.3785 107.845 10.155C101.621 3.93137 93.1805 0.434998 84.379 0.434998C75.5775 0.434998 67.1365 3.93137 60.9129 10.155C54.6894 16.3785 51.193 24.8195 51.193 33.621C51.193 42.4225 54.6894 50.8635 60.9129 57.087C67.1365 63.3106 75.5775 66.807 84.379 66.807Z" stroke="white" stroke-width="0.871"/>
<path d="M84.478 53.244C89.6993 53.244 94.7068 51.1698 98.3988 47.4778C102.091 43.7858 104.165 38.7783 104.165 33.557C104.165 28.3357 102.091 23.3282 98.3988 19.6362C94.7068 15.9442 89.6993 13.87 84.478 13.87C79.2567 13.87 74.2492 15.9442 70.5572 19.6362C66.8652 23.3282 64.791 28.3357 64.791 33.557C64.791 38.7783 66.8652 43.7858 70.5572 47.4778C74.2492 51.1698 79.2567 53.244 84.478 53.244Z" fill="white"/>
<path d="M84.478 55.079C90.186 55.079 95.6602 52.8115 99.6963 48.7753C103.733 44.7392 106 39.265 106 33.557C106 27.849 103.733 22.3748 99.6963 18.3386C95.6602 14.3025 90.186 12.035 84.478 12.035C78.77 12.035 73.2958 14.3025 69.2596 18.3386C65.2235 22.3748 62.956 27.849 62.956 33.557C62.956 39.265 65.2235 44.7392 69.2596 48.7753C73.2958 52.8115 78.77 55.079 84.478 55.079Z" fill="white"/>
<path d="M90.017 31.37L92.269 38.257L86.369 34L80.478 38.257L82.73 31.37L71.083 39.748C71.067 39.783 69.73 43.9 69.646 44.156L72.799 41.878L71.992 44.357L78.373 39.757L77.557 42.257L86.338 35.915L88.609 37.556C90.3213 38.8172 92.2112 39.8175 94.217 40.524C94.317 40.553 94.585 40.632 94.686 40.659L91.833 31.948L94.16 30.27H91.542L90.017 31.37Z" fill="#E50019"/>
<path d="M95.858 25.556L90.758 25.568C90.758 25.568 93.812 23.348 94.43 22.924L94.498 22.877L94.344 22.363C93.529 19.563 90.63 19.176 87.672 19.042C86.4896 19.0004 85.3058 19.0298 84.127 19.13C82.6957 19.1597 81.2906 19.5191 80.0209 20.1802C78.7511 20.8414 77.651 21.7865 76.806 22.942C75.495 24.536 74.58 27.542 73.585 29.483L74.693 28.683L72.993 33.883C72.358 35.84 69.965 40.556 69.965 40.556C69.965 40.556 70.445 40.205 70.795 39.956L71.34 39.563L82.73 31.371L81.206 30.271H84.737L83.458 34.186L86.377 32.078L89.292 34.186L88.01 30.27H94.158L96.385 28.661L87.485 28.672L86.374 25.256L85.258 28.672H78.995L76.834 27.114H84.121L86.37 20.248L88.624 27.114H96.601C96.7455 27.108 96.8897 27.1326 97.024 27.1862C97.1583 27.2398 97.2798 27.3212 97.3805 27.4251C97.4812 27.529 97.5587 27.653 97.6081 27.7889C97.6575 27.9249 97.6775 28.0697 97.667 28.214C98.579 26.714 97.631 25.528 95.858 25.556ZM88.599 22.056C89.9017 21.9625 91.2111 22.0592 92.486 22.343C92.686 22.392 92.699 22.543 92.5 22.598C91.8934 22.8268 91.3361 23.1692 90.858 23.607C90.22 22.9397 89.4509 22.4116 88.599 22.056Z" fill="#AF0207"/>
<path d="M77.774 42.101L77.556 42.258L78.374 39.755L76.232 41.296L74.016 48.091L88.608 37.557L86.337 35.916L77.774 42.101Z" fill="#AF0207"/>
<path d="M98.228 23.874C97.5745 23.4649 96.846 23.1902 96.085 23.066C95.555 22.974 94.494 22.874 94.494 22.874C94.494 22.874 94.328 22.989 94.211 23.074L93.322 23.706C92.279 24.448 90.738 25.538 90.745 25.574L95.845 25.562C97.62 25.531 98.578 26.714 97.667 28.21C100.157 26.236 99.371 24.653 98.228 23.874Z" fill="#E50019"/>
<path d="M61.605 9.335C58.3669 12.4545 55.7872 16.1916 54.0182 20.3253C52.2493 24.459 51.3272 28.9054 51.3063 33.4017C51.2854 37.8979 52.1662 42.3527 53.8967 46.5027C55.6271 50.6526 58.172 54.4135 61.381 57.563" stroke="white" stroke-width="2.613"/>
<path d="M313 44.905H317V22.905H313V44.905Z" fill="#E50019"/>
<path d="M162.4 22.433C157.3 22.433 154.534 25.418 154.161 31.308H152.2V22.715H147V45.152H152.2V35.803H154.145C154.313 42.195 157.088 45.433 162.4 45.433C167.883 45.433 170.66 41.975 170.66 35.155V32.711C170.66 25.889 167.883 22.433 162.4 22.433ZM159.34 32.899C159.34 27.943 160.564 26.933 162.4 26.933C164.236 26.933 165.461 27.947 165.461 32.903V34.933C165.461 39.307 164.632 40.933 162.4 40.933C160.564 40.933 159.34 39.913 159.34 34.933V32.899Z" fill="white"/>
<path d="M185.929 31.308H179.21V22.715H174.01V45.152H179.21V35.808H185.929V45.156H191.129V22.715H185.929V31.308Z" fill="white"/>
<path d="M201.226 22.715L193.401 45.151H198.971L200.292 41.042H206.974L208.295 45.151H213.832L206.007 22.715H201.226ZM205.526 36.544H201.711L203.611 30.623L205.526 36.544Z" fill="white"/>
<path d="M224.251 22.715H216.086V45.151H221.286V37.528H224.251C229.583 37.528 232.764 34.728 232.764 30.043C232.764 25.387 229.662 22.715 224.251 22.715ZM227.564 30.043C227.564 32.167 226.422 33.032 223.624 33.032H221.285V27.242H223.624C225.458 27.242 227.564 27.561 227.564 30.042" fill="white"/>
<path d="M246.079 34.034L240.224 22.716H235.464V45.152H240.443V33.134L244.45 41.26H247.619L251.69 33.034V45.152H256.701V22.716H251.879L246.079 34.034Z" fill="white"/>
<path d="M265.84 35.376V22.716H260.64V45.152H264.868L273.218 32.645V45.152H278.418V22.716H274.284L265.84 35.376Z" fill="white"/>
<path d="M290.547 22.715C285.078 22.715 281.941 25.249 281.941 29.668C281.941 32.735 283.277 34.832 285.917 35.9L280.782 45.152H286.541L291.041 36.652H293.419V45.152H298.619V22.715H290.547ZM293.419 27.242V32.157H290.861C287.732 32.157 287.139 31.282 287.139 29.668C287.139 28.211 287.773 27.242 290.861 27.242H293.419Z" fill="white"/>
<path d="M328.716 27.505V21.8175H330.576C331.193 21.8175 331.656 21.9451 331.966 22.2003C332.279 22.4555 332.435 22.8331 332.435 23.3331C332.435 23.5987 332.359 23.8344 332.208 24.0402C332.057 24.2433 331.852 24.4008 331.591 24.5128C331.898 24.5987 332.141 24.7628 332.318 25.005C332.497 25.2446 332.587 25.531 332.587 25.8644C332.587 26.3748 332.422 26.7758 332.091 27.0675C331.76 27.3592 331.293 27.505 330.689 27.505H328.716ZM329.466 24.8448V26.8917H330.704C331.053 26.8917 331.328 26.8019 331.529 26.6222C331.732 26.4399 331.833 26.1899 331.833 25.8722C331.833 25.1873 331.461 24.8448 330.716 24.8448H329.466ZM329.466 24.2433H330.599C330.927 24.2433 331.189 24.1612 331.384 23.9972C331.582 23.8331 331.681 23.6105 331.681 23.3292C331.681 23.0167 331.59 22.7902 331.408 22.6495C331.225 22.5063 330.948 22.4347 330.576 22.4347H329.466V24.2433ZM335.283 26.9933C335.54 26.9933 335.766 26.9152 335.958 26.7589C336.151 26.6027 336.258 26.4073 336.279 26.173H336.962C336.949 26.4152 336.866 26.6456 336.712 26.8644C336.559 27.0831 336.353 27.2576 336.095 27.3878C335.84 27.518 335.569 27.5831 335.283 27.5831C334.707 27.5831 334.249 27.3917 333.908 27.0089C333.569 26.6235 333.4 26.0974 333.4 25.4308V25.3097C333.4 24.8982 333.475 24.5323 333.626 24.212C333.777 23.8917 333.993 23.643 334.275 23.4659C334.559 23.2889 334.893 23.2003 335.279 23.2003C335.753 23.2003 336.146 23.3422 336.458 23.6261C336.773 23.9099 336.941 24.2784 336.962 24.7316H336.279C336.258 24.4581 336.154 24.2342 335.966 24.0597C335.781 23.8826 335.552 23.7941 335.279 23.7941C334.911 23.7941 334.626 23.9269 334.423 24.1925C334.223 24.4555 334.122 24.837 334.122 25.337V25.4737C334.122 25.9607 334.223 26.3357 334.423 26.5987C334.624 26.8618 334.91 26.9933 335.283 26.9933ZM339.529 27.5831C338.956 27.5831 338.49 27.3956 338.13 27.0206C337.771 26.643 337.591 26.1391 337.591 25.5089V25.3761C337.591 24.9568 337.671 24.5831 337.829 24.255C337.991 23.9243 338.215 23.6665 338.501 23.4816C338.79 23.2941 339.103 23.2003 339.439 23.2003C339.988 23.2003 340.415 23.3813 340.72 23.7433C341.025 24.1053 341.177 24.6235 341.177 25.298V25.5987H338.314C338.324 26.0154 338.445 26.3527 338.677 26.6105C338.911 26.8657 339.208 26.9933 339.568 26.9933C339.823 26.9933 340.039 26.9412 340.216 26.837C340.393 26.7329 340.548 26.5948 340.681 26.423L341.122 26.7667C340.768 27.311 340.237 27.5831 339.529 27.5831ZM339.439 23.7941C339.147 23.7941 338.902 23.9008 338.704 24.1144C338.507 24.3253 338.384 24.6222 338.337 25.005H340.454V24.9503C340.434 24.5831 340.335 24.2993 340.158 24.0987C339.98 23.8956 339.741 23.7941 339.439 23.7941ZM345.587 25.4386C345.587 26.0818 345.44 26.6 345.146 26.9933C344.852 27.3865 344.453 27.5831 343.951 27.5831C343.438 27.5831 343.034 27.4204 342.74 27.0948V29.13H342.017V23.2784H342.677L342.712 23.7472C343.007 23.3826 343.415 23.2003 343.939 23.2003C344.447 23.2003 344.848 23.3917 345.142 23.7745C345.439 24.1573 345.587 24.6899 345.587 25.3722V25.4386ZM344.865 25.3566C344.865 24.88 344.763 24.5037 344.56 24.2277C344.357 23.9516 344.078 23.8136 343.724 23.8136C343.286 23.8136 342.958 24.0076 342.74 24.3956V26.4152C342.956 26.8006 343.286 26.9933 343.732 26.9933C344.078 26.9933 344.353 26.8566 344.556 26.5831C344.762 26.3071 344.865 25.8982 344.865 25.3566ZM346.318 25.3527C346.318 24.9386 346.398 24.5662 346.56 24.2355C346.724 23.9047 346.951 23.6495 347.24 23.4698C347.531 23.2902 347.863 23.2003 348.236 23.2003C348.811 23.2003 349.276 23.3995 349.63 23.798C349.987 24.1964 350.165 24.7264 350.165 25.3878V25.4386C350.165 25.85 350.086 26.2198 349.927 26.548C349.771 26.8735 349.546 27.1274 349.251 27.3097C348.96 27.492 348.624 27.5831 348.243 27.5831C347.671 27.5831 347.206 27.3839 346.849 26.9855C346.495 26.587 346.318 26.0597 346.318 25.4034V25.3527ZM347.044 25.4386C347.044 25.9073 347.152 26.2836 347.368 26.5675C347.587 26.8514 347.879 26.9933 348.243 26.9933C348.611 26.9933 348.902 26.85 349.118 26.5636C349.335 26.2745 349.443 25.8709 349.443 25.3527C349.443 24.8891 349.332 24.5141 349.111 24.2277C348.892 23.9386 348.6 23.7941 348.236 23.7941C347.879 23.7941 347.591 23.936 347.372 24.2198C347.154 24.5037 347.044 24.9099 347.044 25.4386ZM352.767 26.9933C353.025 26.9933 353.25 26.9152 353.443 26.7589C353.635 26.6027 353.742 26.4073 353.763 26.173H354.447C354.434 26.4152 354.35 26.6456 354.197 26.8644C354.043 27.0831 353.837 27.2576 353.579 27.3878C353.324 27.518 353.053 27.5831 352.767 27.5831C352.191 27.5831 351.733 27.3917 351.392 27.0089C351.053 26.6235 350.884 26.0974 350.884 25.4308V25.3097C350.884 24.8982 350.96 24.5323 351.111 24.212C351.262 23.8917 351.478 23.643 351.759 23.4659C352.043 23.2889 352.378 23.2003 352.763 23.2003C353.237 23.2003 353.63 23.3422 353.943 23.6261C354.258 23.9099 354.426 24.2784 354.447 24.7316H353.763C353.742 24.4581 353.638 24.2342 353.451 24.0597C353.266 23.8826 353.036 23.7941 352.763 23.7941C352.396 23.7941 352.111 23.9269 351.908 24.1925C351.707 24.4555 351.607 24.837 351.607 25.337V25.4737C351.607 25.9607 351.707 26.3357 351.908 26.5987C352.108 26.8618 352.395 26.9933 352.767 26.9933ZM356.954 26.9933C357.212 26.9933 357.438 26.9152 357.63 26.7589C357.823 26.6027 357.93 26.4073 357.951 26.173H358.634C358.621 26.4152 358.538 26.6456 358.384 26.8644C358.23 27.0831 358.025 27.2576 357.767 27.3878C357.512 27.518 357.241 27.5831 356.954 27.5831C356.379 27.5831 355.921 27.3917 355.579 27.0089C355.241 26.6235 355.072 26.0974 355.072 25.4308V25.3097C355.072 24.8982 355.147 24.5323 355.298 24.212C355.449 23.8917 355.665 23.643 355.947 23.4659C356.23 23.2889 356.565 23.2003 356.951 23.2003C357.424 23.2003 357.818 23.3422 358.13 23.6261C358.445 23.9099 358.613 24.2784 358.634 24.7316H357.951C357.93 24.4581 357.826 24.2342 357.638 24.0597C357.453 23.8826 357.224 23.7941 356.951 23.7941C356.583 23.7941 356.298 23.9269 356.095 24.1925C355.895 24.4555 355.794 24.837 355.794 25.337V25.4737C355.794 25.9607 355.895 26.3357 356.095 26.5987C356.296 26.8618 356.582 26.9933 356.954 26.9933ZM362.181 23.2784H362.904V27.505H362.181V24.423L360.232 27.505H359.509V23.2784H360.232V26.3644L362.181 23.2784ZM366.798 23.2784H367.521V27.505H366.798V24.423L364.849 27.505H364.126V23.2784H364.849V26.3644L366.798 23.2784ZM366.993 21.7394C366.993 22.0545 366.885 22.3084 366.669 22.5011C366.456 22.6912 366.174 22.7862 365.826 22.7862C365.477 22.7862 365.194 22.6899 364.978 22.4972C364.762 22.3045 364.654 22.0519 364.654 21.7394H365.243C365.243 21.9217 365.293 22.0649 365.392 22.1691C365.491 22.2706 365.635 22.3214 365.826 22.3214C366.008 22.3214 366.15 22.2706 366.251 22.1691C366.355 22.0675 366.408 21.9243 366.408 21.7394H366.993ZM370.376 26.9933C370.634 26.9933 370.859 26.9152 371.052 26.7589C371.245 26.6027 371.352 26.4073 371.372 26.173H372.056C372.043 26.4152 371.96 26.6456 371.806 26.8644C371.652 27.0831 371.447 27.2576 371.189 27.3878C370.934 27.518 370.663 27.5831 370.376 27.5831C369.801 27.5831 369.342 27.3917 369.001 27.0089C368.663 26.6235 368.493 26.0974 368.493 25.4308V25.3097C368.493 24.8982 368.569 24.5323 368.72 24.212C368.871 23.8917 369.087 23.643 369.368 23.4659C369.652 23.2889 369.987 23.2003 370.372 23.2003C370.846 23.2003 371.24 23.3422 371.552 23.6261C371.867 23.9099 372.035 24.2784 372.056 24.7316H371.372C371.352 24.4581 371.247 24.2342 371.06 24.0597C370.875 23.8826 370.646 23.7941 370.372 23.7941C370.005 23.7941 369.72 23.9269 369.517 24.1925C369.316 24.4555 369.216 24.837 369.216 25.337V25.4737C369.216 25.9607 369.316 26.3357 369.517 26.5987C369.717 26.8618 370.004 26.9933 370.376 26.9933ZM374.185 25.7042H373.658V27.505H372.931V23.2784H373.658V25.0675H374.13L375.552 23.2784H376.427L374.755 25.3097L376.568 27.505H375.65L374.185 25.7042ZM376.911 25.3527C376.911 24.9386 376.992 24.5662 377.154 24.2355C377.318 23.9047 377.544 23.6495 377.833 23.4698C378.125 23.2902 378.457 23.2003 378.829 23.2003C379.405 23.2003 379.87 23.3995 380.224 23.798C380.581 24.1964 380.759 24.7264 380.759 25.3878V25.4386C380.759 25.85 380.68 26.2198 380.521 26.548C380.365 26.8735 380.139 27.1274 379.845 27.3097C379.553 27.492 379.217 27.5831 378.837 27.5831C378.264 27.5831 377.799 27.3839 377.443 26.9855C377.089 26.587 376.911 26.0597 376.911 25.4034V25.3527ZM377.638 25.4386C377.638 25.9073 377.746 26.2836 377.962 26.5675C378.181 26.8514 378.473 26.9933 378.837 26.9933C379.204 26.9933 379.496 26.85 379.712 26.5636C379.928 26.2745 380.036 25.8709 380.036 25.3527C380.036 24.8891 379.926 24.5141 379.704 24.2277C379.486 23.9386 379.194 23.7941 378.829 23.7941C378.473 23.7941 378.185 23.936 377.966 24.2198C377.747 24.5037 377.638 24.9099 377.638 25.4386ZM383.419 27.5831C382.846 27.5831 382.38 27.3956 382.021 27.0206C381.661 26.643 381.482 26.1391 381.482 25.5089V25.3761C381.482 24.9568 381.561 24.5831 381.72 24.255C381.882 23.9243 382.105 23.6665 382.392 23.4816C382.681 23.2941 382.993 23.2003 383.329 23.2003C383.879 23.2003 384.306 23.3813 384.611 23.7433C384.915 24.1053 385.068 24.6235 385.068 25.298V25.5987H382.204C382.215 26.0154 382.336 26.3527 382.568 26.6105C382.802 26.8657 383.099 26.9933 383.458 26.9933C383.714 26.9933 383.93 26.9412 384.107 26.837C384.284 26.7329 384.439 26.5948 384.572 26.423L385.013 26.7667C384.659 27.311 384.128 27.5831 383.419 27.5831ZM383.329 23.7941C383.038 23.7941 382.793 23.9008 382.595 24.1144C382.397 24.3253 382.275 24.6222 382.228 25.005H384.345V24.9503C384.324 24.5831 384.225 24.2993 384.048 24.0987C383.871 23.8956 383.632 23.7941 383.329 23.7941Z" fill="white"/>
<path d="M328.512 34.9152L328.762 34.6066C329.043 34.242 329.203 33.6951 329.242 32.9659L329.309 31.2784H332.031V34.9152H332.574V36.7472H331.852V35.505H328.902V36.7472H328.18L328.184 34.9152H328.512ZM329.367 34.9152H331.309V31.9464H330.008L329.965 32.9542C329.921 33.7954 329.721 34.449 329.367 34.9152ZM335.129 35.5831C334.556 35.5831 334.09 35.3956 333.73 35.0206C333.371 34.643 333.191 34.1391 333.191 33.5089V33.3761C333.191 32.9568 333.271 32.5831 333.43 32.255C333.591 31.9243 333.815 31.6665 334.102 31.4816C334.391 31.2941 334.703 31.2003 335.039 31.2003C335.589 31.2003 336.016 31.3813 336.32 31.7433C336.625 32.1053 336.777 32.6235 336.777 33.298V33.5987H333.914C333.924 34.0154 334.046 34.3527 334.277 34.6105C334.512 34.8657 334.809 34.9933 335.168 34.9933C335.423 34.9933 335.639 34.9412 335.816 34.837C335.993 34.7329 336.148 34.5948 336.281 34.423L336.723 34.7667C336.368 35.311 335.837 35.5831 335.129 35.5831ZM335.039 31.7941C334.747 31.7941 334.503 31.9008 334.305 32.1144C334.107 32.3253 333.984 32.6222 333.938 33.005H336.055V32.9503C336.034 32.5831 335.935 32.2993 335.758 32.0987C335.581 31.8956 335.341 31.7941 335.039 31.7941ZM340.711 31.8644H339.293V35.505H338.57V31.8644H337.18V31.2784H340.711V31.8644ZM342.797 34.9933C343.055 34.9933 343.28 34.9152 343.473 34.7589C343.665 34.6027 343.772 34.4073 343.793 34.173H344.477C344.464 34.4152 344.38 34.6456 344.227 34.8644C344.073 35.0831 343.867 35.2576 343.609 35.3878C343.354 35.518 343.083 35.5831 342.797 35.5831C342.221 35.5831 341.763 35.3917 341.422 35.0089C341.083 34.6235 340.914 34.0974 340.914 33.4308V33.3097C340.914 32.8982 340.99 32.5323 341.141 32.212C341.292 31.8917 341.508 31.643 341.789 31.4659C342.073 31.2889 342.408 31.2003 342.793 31.2003C343.267 31.2003 343.66 31.3422 343.973 31.6261C344.288 31.9099 344.456 32.2784 344.477 32.7316H343.793C343.772 32.4581 343.668 32.2342 343.48 32.0597C343.296 31.8826 343.066 31.7941 342.793 31.7941C342.426 31.7941 342.141 31.9269 341.938 32.1925C341.737 32.4555 341.637 32.837 341.637 33.337V33.4737C341.637 33.9607 341.737 34.3357 341.938 34.5987C342.138 34.8618 342.424 34.9933 342.797 34.9933ZM346.605 33.7042H346.078V35.505H345.352V31.2784H346.078V33.0675H346.551L347.973 31.2784H348.848L347.176 33.3097L348.988 35.505H348.07L346.605 33.7042ZM349.332 33.3527C349.332 32.9386 349.413 32.5662 349.574 32.2355C349.738 31.9047 349.965 31.6495 350.254 31.4698C350.546 31.2902 350.878 31.2003 351.25 31.2003C351.826 31.2003 352.29 31.3995 352.645 31.798C353.001 32.1964 353.18 32.7264 353.18 33.3878V33.4386C353.18 33.85 353.1 34.2198 352.941 34.548C352.785 34.8735 352.56 35.1274 352.266 35.3097C351.974 35.492 351.638 35.5831 351.258 35.5831C350.685 35.5831 350.22 35.3839 349.863 34.9855C349.509 34.587 349.332 34.0597 349.332 33.4034V33.3527ZM350.059 33.4386C350.059 33.9073 350.167 34.2836 350.383 34.5675C350.602 34.8514 350.893 34.9933 351.258 34.9933C351.625 34.9933 351.917 34.85 352.133 34.5636C352.349 34.2745 352.457 33.8709 352.457 33.3527C352.457 32.8891 352.346 32.5141 352.125 32.2277C351.906 31.9386 351.615 31.7941 351.25 31.7941C350.893 31.7941 350.605 31.936 350.387 32.2198C350.168 32.5037 350.059 32.9099 350.059 33.4386ZM355.59 33.3839H353.684V32.7941H355.59V33.3839ZM357.086 33.0714H358.102C358.156 32.5089 358.355 32.0571 358.699 31.7159C359.046 31.3722 359.482 31.2003 360.008 31.2003C360.56 31.2003 361.012 31.3865 361.363 31.7589C361.715 32.1313 361.905 32.6157 361.934 33.212L361.938 33.4386C361.938 33.85 361.857 34.2211 361.695 34.5519C361.534 34.8826 361.307 35.1378 361.016 35.3175C360.724 35.4946 360.391 35.5831 360.016 35.5831C359.471 35.5831 359.026 35.406 358.68 35.0519C358.333 34.6951 358.139 34.2329 358.098 33.6652H357.086V35.505H356.363V31.2784H357.086V33.0714ZM358.812 33.4386C358.812 33.9073 358.921 34.2836 359.137 34.5675C359.355 34.8514 359.648 34.9933 360.016 34.9933C360.383 34.9933 360.673 34.8487 360.887 34.5597C361.103 34.2706 361.211 33.8683 361.211 33.3527C361.211 32.8917 361.102 32.5167 360.883 32.2277C360.664 31.9386 360.372 31.7941 360.008 31.7941C359.648 31.7941 359.359 31.936 359.141 32.2198C358.922 32.5037 358.812 32.9099 358.812 33.4386ZM366.281 35.505H365.559V33.7003H363.617V35.505H362.891V31.2784H363.617V33.1105H365.559V31.2784H366.281V35.505ZM367.254 33.3527C367.254 32.9386 367.335 32.5662 367.496 32.2355C367.66 31.9047 367.887 31.6495 368.176 31.4698C368.467 31.2902 368.799 31.2003 369.172 31.2003C369.747 31.2003 370.212 31.3995 370.566 31.798C370.923 32.1964 371.102 32.7264 371.102 33.3878V33.4386C371.102 33.85 371.022 34.2198 370.863 34.548C370.707 34.8735 370.482 35.1274 370.188 35.3097C369.896 35.492 369.56 35.5831 369.18 35.5831C368.607 35.5831 368.142 35.3839 367.785 34.9855C367.431 34.587 367.254 34.0597 367.254 33.4034V33.3527ZM367.98 33.4386C367.98 33.9073 368.089 34.2836 368.305 34.5675C368.523 34.8514 368.815 34.9933 369.18 34.9933C369.547 34.9933 369.839 34.85 370.055 34.5636C370.271 34.2745 370.379 33.8709 370.379 33.3527C370.379 32.8891 370.268 32.5141 370.047 32.2277C369.828 31.9386 369.536 31.7941 369.172 31.7941C368.815 31.7941 368.527 31.936 368.309 32.2198C368.09 32.5037 367.98 32.9099 367.98 33.4386ZM372.797 31.2784V34.9152H374.344V31.2784H375.066V34.9152H376.609V31.2784H377.336V35.505H372.07V31.2784H372.797ZM380.23 35.5831C379.658 35.5831 379.191 35.3956 378.832 35.0206C378.473 34.643 378.293 34.1391 378.293 33.5089V33.3761C378.293 32.9568 378.372 32.5831 378.531 32.255C378.693 31.9243 378.917 31.6665 379.203 31.4816C379.492 31.2941 379.805 31.2003 380.141 31.2003C380.69 31.2003 381.117 31.3813 381.422 31.7433C381.727 32.1053 381.879 32.6235 381.879 33.298V33.5987H379.016C379.026 34.0154 379.147 34.3527 379.379 34.6105C379.613 34.8657 379.91 34.9933 380.27 34.9933C380.525 34.9933 380.741 34.9412 380.918 34.837C381.095 34.7329 381.25 34.5948 381.383 34.423L381.824 34.7667C381.47 35.311 380.939 35.5831 380.23 35.5831ZM380.141 31.7941C379.849 31.7941 379.604 31.9008 379.406 32.1144C379.208 32.3253 379.086 32.6222 379.039 33.005H381.156V32.9503C381.135 32.5831 381.036 32.2993 380.859 32.0987C380.682 31.8956 380.443 31.7941 380.141 31.7941ZM384.414 34.9933C384.672 34.9933 384.897 34.9152 385.09 34.7589C385.283 34.6027 385.389 34.4073 385.41 34.173H386.094C386.081 34.4152 385.997 34.6456 385.844 34.8644C385.69 35.0831 385.484 35.2576 385.227 35.3878C384.971 35.518 384.701 35.5831 384.414 35.5831C383.839 35.5831 383.38 35.3917 383.039 35.0089C382.701 34.6235 382.531 34.0974 382.531 33.4308V33.3097C382.531 32.8982 382.607 32.5323 382.758 32.212C382.909 31.8917 383.125 31.643 383.406 31.4659C383.69 31.2889 384.025 31.2003 384.41 31.2003C384.884 31.2003 385.277 31.3422 385.59 31.6261C385.905 31.9099 386.073 32.2784 386.094 32.7316H385.41C385.389 32.4581 385.285 32.2342 385.098 32.0597C384.913 31.8826 384.684 31.7941 384.41 31.7941C384.043 31.7941 383.758 31.9269 383.555 32.1925C383.354 32.4555 383.254 32.837 383.254 33.337V33.4737C383.254 33.9607 383.354 34.3357 383.555 34.5987C383.755 34.8618 384.042 34.9933 384.414 34.9933ZM388.223 33.7042H387.695V35.505H386.969V31.2784H387.695V33.0675H388.168L389.59 31.2784H390.465L388.793 33.3097L390.605 35.505H389.688L388.223 33.7042ZM390.949 33.3527C390.949 32.9386 391.03 32.5662 391.191 32.2355C391.355 31.9047 391.582 31.6495 391.871 31.4698C392.163 31.2902 392.495 31.2003 392.867 31.2003C393.443 31.2003 393.908 31.3995 394.262 31.798C394.618 32.1964 394.797 32.7264 394.797 33.3878V33.4386C394.797 33.85 394.717 34.2198 394.559 34.548C394.402 34.8735 394.177 35.1274 393.883 35.3097C393.591 35.492 393.255 35.5831 392.875 35.5831C392.302 35.5831 391.837 35.3839 391.48 34.9855C391.126 34.587 390.949 34.0597 390.949 33.4034V33.3527ZM391.676 33.4386C391.676 33.9073 391.784 34.2836 392 34.5675C392.219 34.8514 392.51 34.9933 392.875 34.9933C393.242 34.9933 393.534 34.85 393.75 34.5636C393.966 34.2745 394.074 33.8709 394.074 33.3527C394.074 32.8891 393.964 32.5141 393.742 32.2277C393.523 31.9386 393.232 31.7941 392.867 31.7941C392.51 31.7941 392.223 31.936 392.004 32.2198C391.785 32.5037 391.676 32.9099 391.676 33.4386ZM397.457 35.5831C396.884 35.5831 396.418 35.3956 396.059 35.0206C395.699 34.643 395.52 34.1391 395.52 33.5089V33.3761C395.52 32.9568 395.599 32.5831 395.758 32.255C395.919 31.9243 396.143 31.6665 396.43 31.4816C396.719 31.2941 397.031 31.2003 397.367 31.2003C397.917 31.2003 398.344 31.3813 398.648 31.7433C398.953 32.1053 399.105 32.6235 399.105 33.298V33.5987H396.242C396.253 34.0154 396.374 34.3527 396.605 34.6105C396.84 34.8657 397.137 34.9933 397.496 34.9933C397.751 34.9933 397.967 34.9412 398.145 34.837C398.322 34.7329 398.477 34.5948 398.609 34.423L399.051 34.7667C398.697 35.311 398.165 35.5831 397.457 35.5831ZM397.367 31.7941C397.076 31.7941 396.831 31.9008 396.633 32.1144C396.435 32.3253 396.312 32.6222 396.266 33.005H398.383V32.9503C398.362 32.5831 398.263 32.2993 398.086 32.0987C397.909 31.8956 397.669 31.7941 397.367 31.7941Z" fill="white"/>
<path d="M328.512 42.9152L328.762 42.6066C329.043 42.242 329.203 41.6951 329.242 40.9659L329.309 39.2784H332.031V42.9152H332.574V44.7472H331.852V43.505H328.902V44.7472H328.18L328.184 42.9152H328.512ZM329.367 42.9152H331.309V39.9464H330.008L329.965 40.9542C329.921 41.7954 329.721 42.449 329.367 42.9152ZM333.441 43.505V39.2784H335.09C335.652 39.2784 336.083 39.3774 336.383 39.5753C336.685 39.7706 336.836 40.0584 336.836 40.4386C336.836 40.6339 336.777 40.811 336.66 40.9698C336.543 41.1261 336.37 41.2459 336.141 41.3292C336.396 41.3891 336.6 41.5063 336.754 41.6808C336.91 41.8553 336.988 42.0636 336.988 42.3058C336.988 42.6938 336.845 42.9907 336.559 43.1964C336.275 43.4021 335.872 43.505 335.352 43.505H333.441ZM334.164 41.6495V42.923H335.359C335.661 42.923 335.887 42.867 336.035 42.755C336.186 42.643 336.262 42.4855 336.262 42.2823C336.262 41.8605 335.952 41.6495 335.332 41.6495H334.164ZM334.164 41.0714H335.098C335.775 41.0714 336.113 40.8735 336.113 40.4777C336.113 40.0818 335.793 39.8774 335.152 39.8644H334.164V41.0714ZM340.68 39.2784H341.402V43.505H340.68V40.423L338.73 43.505H338.008V39.2784H338.73V42.3644L340.68 39.2784ZM345.934 41.6691H345.426V43.505H344.703V41.6691H344.195L343.012 43.505H342.098L343.609 41.3175L342.242 39.2784H343.117L344.207 41.0284H344.703V39.2784H345.426V41.0284H345.918L347.016 39.2784H347.891L346.52 41.3214L348.031 43.505H347.117L345.934 41.6691ZM350.363 43.5831C349.79 43.5831 349.324 43.3956 348.965 43.0206C348.605 42.643 348.426 42.1391 348.426 41.5089V41.3761C348.426 40.9568 348.505 40.5831 348.664 40.255C348.826 39.9243 349.049 39.6665 349.336 39.4816C349.625 39.2941 349.938 39.2003 350.273 39.2003C350.823 39.2003 351.25 39.3813 351.555 39.7433C351.859 40.1053 352.012 40.6235 352.012 41.298V41.5987H349.148C349.159 42.0154 349.28 42.3527 349.512 42.6105C349.746 42.8657 350.043 42.9933 350.402 42.9933C350.658 42.9933 350.874 42.9412 351.051 42.837C351.228 42.7329 351.383 42.5948 351.516 42.423L351.957 42.7667C351.603 43.311 351.072 43.5831 350.363 43.5831ZM350.273 39.7941C349.982 39.7941 349.737 39.9008 349.539 40.1144C349.341 40.3253 349.219 40.6222 349.172 41.005H351.289V40.9503C351.268 40.5831 351.169 40.2993 350.992 40.0987C350.815 39.8956 350.576 39.7941 350.273 39.7941ZM356.305 43.505H355.582V41.7003H353.641V43.505H352.914V39.2784H353.641V41.1105H355.582V39.2784H356.305V43.505ZM360.203 39.2784H360.926V43.505H360.203V40.423L358.254 43.505H357.531V39.2784H358.254V42.3644L360.203 39.2784ZM363.84 43.5831C363.267 43.5831 362.801 43.3956 362.441 43.0206C362.082 42.643 361.902 42.1391 361.902 41.5089V41.3761C361.902 40.9568 361.982 40.5831 362.141 40.255C362.302 39.9243 362.526 39.6665 362.812 39.4816C363.102 39.2941 363.414 39.2003 363.75 39.2003C364.299 39.2003 364.727 39.3813 365.031 39.7433C365.336 40.1053 365.488 40.6235 365.488 41.298V41.5987H362.625C362.635 42.0154 362.757 42.3527 362.988 42.6105C363.223 42.8657 363.52 42.9933 363.879 42.9933C364.134 42.9933 364.35 42.9412 364.527 42.837C364.704 42.7329 364.859 42.5948 364.992 42.423L365.434 42.7667C365.079 43.311 364.548 43.5831 363.84 43.5831ZM363.75 39.7941C363.458 39.7941 363.214 39.9008 363.016 40.1144C362.818 40.3253 362.695 40.6222 362.648 41.005H364.766V40.9503C364.745 40.5831 364.646 40.2993 364.469 40.0987C364.292 39.8956 364.052 39.7941 363.75 39.7941Z" fill="white"/>
<path d="M428 24.5L437.667 33.938L428 43.5M412 33.938H437.022" stroke="#E50019" stroke-width="4" stroke-miterlimit="10"/>
<path d="M134 30.935H129V35.935H134V30.935Z" fill="white"/>
</g>
<defs>
<clipPath id="clip0">
<rect width="440.602" height="67.243" fill="white"/>
</clipPath>
</defs>
</svg>
